<?xml version="1.0" encoding="UTF-8"?>
<svg id="Layer_2" data-name="Layer 2" xmlns="http://www.w3.org/2000/svg" width="166.79" height="150.18" xmlns:xlink="http://www.w3.org/1999/xlink" viewBox="0 0 166.79 150.18">
  <defs>
    <linearGradient id="linear-gradient" x1="0" y1="75.09" x2="166.79" y2="75.09" gradientUnits="userSpaceOnUse">
      <stop offset="0" stop-color="#c699f1"/>
      <stop offset="1" stop-color="#ffa0b0"/>
    </linearGradient>
  </defs>
  <g id="Layer_1-2" data-name="Layer 1">
    <path d="M31.84,16.1c32.49-23.04,78.9-21.16,108.94,4.46,30.56,26.07,34.73,68.65,9.6,99.15-23.67,28.73-66.37,38.19-101.92,23.38l-1.94-.84-36.45,7.76-.33.05-.29.06h-.15l-.18.04h-.32l-.27.03h-.17s-.19,0-.19,0l-.27-.03h-.29l-.18-.03-.18-.02-.29-.06-.28-.04-.13-.03-.2-.04-.41-.13-.2-.04-.09-.04-.18-.06-.38-.17-.25-.1-.09-.05-.12-.05-.26-.15-.38-.2-.13-.09-.31-.22-.33-.23-.02-.03-.11-.08-.36-.33-.21-.17-.05-.06-.47-.52-.11-.12-.09-.12-.33-.47-.12-.16-.04-.08-.35-.61-.06-.1-.03-.07-.06-.1-.12-.32-.17-.35-.03-.13-.03-.08-.14-.51-.06-.15-.02-.12-.04-.16-.04-.28-.07-.35-.02-.26-.03-.08v-.13l-.03-.45v-.3s.02-.19.02-.19l.02-.44.03-.21v-.16l.07-.29.04-.28.04-.17.03-.17.15-.5.03-.11,9.58-28.75-.18-.31C-8.59,78.93-.25,40.23,29.93,17.5l1.91-1.4Z" style="fill: url(#linear-gradient);"/>
  </g>
</svg>