<?xml version="1.0" encoding="UTF-8"?>
<svg id="Layer_2" xmlns="http://www.w3.org/2000/svg" width="272.73" height="227.27" viewBox="0 0 272.73 227.27">
  <g id="_レイヤー_1" data-name="レイヤー_1">
    <g>
      <path d="M164.53,121.74c-9.06-10.12-21.65-15.81-37.8-17.04,14.37-3.92,24.81-9.65,31.41-17.3,6.57-7.55,9.83-17.81,9.83-30.71,0-10.22-2.23-19.25-6.56-27.06-4.44-7.76-10.81-13.97-19.19-18.62-7.33-4.03-16.04-6.87-26.2-8.55-10.21-1.62-28.07-2.45-53.7-2.45H0v227.27h64.21c25.79,0,44.39-.9,55.77-2.63,11.36-1.79,20.9-4.79,28.61-8.91,9.54-5.04,16.83-12.21,21.91-21.42,5.12-9.24,7.66-19.89,7.66-32.08,0-16.85-4.54-30.4-13.63-40.49ZM57.54,50.39h13.3c15.37,0,25.7,1.74,31.03,5.19,5.26,3.47,7.94,9.47,7.94,18s-2.85,14-8.5,17.39c-5.72,3.33-16.15,5.02-31.41,5.02h-12.37v-45.6ZM110.31,180.72c-6.05,3.72-16.48,5.54-31.11,5.54h-21.65v-49.65h22.58c15.03,0,25.42,1.89,30.94,5.67,5.61,3.78,8.38,10.45,8.38,20.03,0,8.57-3.03,14.72-9.14,18.42Z" style="fill: #fff;"/>
      <path d="M243.94,169.7c-15.91,0-28.79,12.88-28.79,28.78s12.89,28.79,28.79,28.79,28.78-12.89,28.78-28.79-12.9-28.78-28.78-28.78Z" style="fill: #fff;"/>
      <rect x="218.94" width="50" height="151.52" style="fill: #fff;"/>
    </g>
  </g>
</svg>